# xmcd
#
# Track frame offsets:
#	150
#	14162
#	29787
#	37955
#	51360
#	65092
#	76405
#	84742
#	94042
#	103592
#	114152
#	123507
#	133755
#
# Disc length: 2146 seconds
#
# Revision: 1
# Processed by: cddbd v1.5.2PL0 Copyright (c) Steve Scherf et al.
# Submitted via: audiograbber 1.83.01
#
DISCID=b508600d
DTITLE=The Revelators - Let a Poor Boy Ride...
DYEAR=1900
DGENRE=
TTITLE0=We Told You Not To Cross Us
TTITLE1=Missouri Mule
TTITLE2=I Can't Stop Lovin' (That Baby of Mine)
TTITLE3=Love One Day
TTITLE4=Killin' Me
TTITLE5=Jack Johnson
TTITLE6=What I Want
TTITLE7=It's a Sin
TTITLE8=Lone Star
TTITLE9=Take It Back
TTITLE10=Buzzard and The Hawk
TTITLE11=Rainin' In My Heart
TTITLE12=Jitterbug Swing
EXTD=
EXTT0=
EXTT1=
EXTT2=
EXTT3=
EXTT4=
EXTT5=
EXTT6=
EXTT7=
EXTT8=
EXTT9=
EXTT10=
EXTT11=
EXTT12=
PLAYORDER=
